# xmcd
#
# Track frame offsets:
#	150
#	12745
#	29667
#	52385
#	63947
#	83500
#	105670
#	124007
#	146505
#	165302
#	177652
#	197227
#
# Disc length: 2732 seconds
#
# Revision: 3
# Processed by: cddbd v1.5.2PL0 Copyright (c) Steve Scherf et al.
# Submitted via: audiograbber 1.83.01
#
DISCID=ab0aaa0c
DTITLE=Blue Mountain - Homegrown
DYEAR=1997
DGENRE=Country-Rock
TTITLE0=Bloody 98
TTITLE1=Myrna Lee
TTITLE2=Pretty Please
TTITLE3=Black Dog
TTITLE4=Generic America
TTITLE5=Last Words Of Midnight Clyde
TTITLE6=Babe
TTITLE7=It Ain't Easy To Love A Liar
TTITLE8=Ira Magee
TTITLE9=Town Clown
TTITLE10=Dead End Street
TTITLE11=Rain
EXTD=
EXTT0=
EXTT1=
EXTT2=
EXTT3=
EXTT4=
EXTT5=
EXTT6=
EXTT7=
EXTT8=
EXTT9=
EXTT10=
EXTT11=
PLAYORDER=
